{"title":"PanÃ‚Â´s Labyrinth.2006.SWESUB.DVDRip.XviD.AC3.(5.1).-Zen_Bud","uid":5628943,"size":1471066688,"categoryP":"video","categoryS":"movies","magnet":"?xt=urn:btih:bdb60d8622ccf3e1b7ad574db4b62f4c8b5d42b0&amp;dn=Pan%C3%82%C2%B4s+Labyrinth.2006.SWESUB.DVDRip.XviD.AC3.%285.1%29.-Zen_Bud&amp;tr=udp%3A%2F%2Ftracker.openbittorrent.com%3A80&amp;tr=udp%3A%2F%2Fopen.demonii.com%3A1337&amp;tr=udp%3A%2F%2Ftracker.coppersurfer.tk%3A6969&amp;tr=udp%3A%2F%2Fexodus.desync.com%3A6969","seeders":2,"leechers":0,"uploader":"Zen_Bud","files":-1,"time":1276590011,"description":"General\nComplete name                    : Pan's Labyrinth.avi\nFormat                           : AVI\nFile size                        : 1.37 GiB\nDuration                         : 1h 53mn\nOverall bit rate                 : 1 721 Kbps\n\nVideo\n\nFormat                           : MPEG-4 Visual\nCodec ID/Hint                    : XviD\nDuration                         : 1h 53mn\nBit rate                         : 1 326 Kbps\nWidth                            : 720 pixels\nHeight                           : 554 pixels\nDisplay aspect ratio             : 16:9\nStream size                      : 1.06 GiB (77%)\nWriting library                  : XviD 1.1.2 (UTC 2006-11-01)\n\nAudio\n\nFormat                           : AC-3\nDuration                         : 1h 53mn\nBit rate                         : 384 Kbps\nChannel(s)                       : 6 channels\nChannel positions                : Front: L C R, Side: L R, LFE\nSampling rate                    : 48.0 KHz\nStream size                      : 313 MiB (22%)\n\n\n","torrent":{"xt":"urn:btih:bdb60d8622ccf3e1b7ad574db4b62f4c8b5d42b0","amp;dn":"Pan%C3%82%C2%B4s+Labyrinth.2006.SWESUB.DVDRip.XviD.AC3.%285.1%29.-Zen_Bud","amp;tr":["udp%3A%2F%2Ftracker.openbittorrent.com%3A80","udp%3A%2F%2Fopen.demonii.com%3A1337","udp%3A%2F%2Ftracker.coppersurfer.tk%3A6969","udp%3A%2F%2Fexodus.desync.com%3A6969"],"infoHash":"bdb60d8622ccf3e1b7ad574db4b62f4c8b5d42b0","infoHashBuffer":{"type":"Buffer","data":[189,182,13,134,34,204,243,225,183,173,87,77,180,182,47,76,139,93,66,176]},"announce":[],"urlList":[]}}